<?xml version="1.0" encoding="UTF-8"?>
<svg xmlns="http://www.w3.org/2000/svg" width="600" height="600" viewBox="0 0 600 600">
  <!-- traced art as ink mask, frame removed, transparent bg -->
  <mask id="ink" maskUnits="userSpaceOnUse" x="0" y="0" width="600" height="600">
    <g transform="translate(0,600) scale(0.1,-0.1)" fill="#ffffff" stroke="none">
<path d="M785 5561 c-3 -5 -2 -12 3 -15 5 -3 9 1 9 9 0 17 -3 19 -12 6z"/>
<path d="M545 5329 c-4 -6 -5 -12 -2 -15 2 -3 7 2 10 11 7 17 1 20 -8 4z"/>
<path d="M4000 4980 c0 -5 4 -11 9 -14 12 -8 83 -137 78 -142 -2 -3 -35 0 -73
6 -111 18 -552 24 -701 11 -334 -30 -657 -111 -933 -235 -102 -46 -273 -136
-260 -136 3 0 39 6 80 14 117 23 335 45 449 47 99 1 110 4 208 45 274 115 528
171 878 194 266 18 613 -4 869 -55 66 -14 121 -23 122 -22 2 2 -161 69 -362
149 -200 80 -364 142 -364 138z m74 -46 c3 -8 2 -12 -4 -9 -6 3 -10 10 -10 16
0 14 7 11 14 -7z m68 -28 c9 0 15 -3 12 -7 -2 -4 18 -13 45 -20 28 -7 48 -16
46 -20 -6 -9 50 -29 84 -29 21 0 23 -2 11 -11 -12 -8 -12 -10 5 -8 11 1 23 0
28 -1 4 -1 10 -3 15 -5 4 -1 18 -7 32 -14 20 -9 -6 -10 -125 -5 -86 3 -152 10
-156 16 -4 7 -8 6 -11 -3 -3 -8 -11 -10 -22 -6 -14 6 -16 10 -7 21 6 7 10 20
8 27 -2 8 -2 11 0 7 3 -5 10 -8 16 -8 7 1 2 9 -10 19 -13 11 -23 24 -23 31 0
6 -5 8 -12 4 -9 -5 -8 -2 1 10 9 10 20 14 30 10 9 -4 24 -7 33 -8z m-443 -83
c95 -4 120 -8 106 -16 -11 -6 -44 -12 -75 -13 -192 -10 -268 -17 -287 -26 -12
-6 -35 -8 -52 -6 -17 3 -31 1 -31 -3 0 -9 -59 -22 -107 -24 -18 0 -35 -3 -38
-7 -4 -4 -14 -4 -23 -1 -10 4 -13 2 -8 -5 5 -8 -2 -12 -19 -12 -16 0 -24 -4
-19 -11 4 -7 -1 -7 -16 1 -18 10 -21 9 -15 -1 6 -9 3 -10 -10 -5 -10 4 -28 0
-42 -10 -14 -9 -33 -14 -44 -11 -10 3 -17 0 -16 -6 1 -6 -3 -11 -10 -12 -6 0
-15 -3 -19 -7 -4 -5 -23 -8 -41 -8 -24 0 -32 -4 -27 -12 5 -8 2 -9 -9 -5 -10
4 -16 2 -14 -5 2 -13 -52 -30 -72 -23 -10 4 -11 2 -3 -8 8 -9 7 -13 -6 -15
-59 -8 -242 -20 -327 -21 -59 -1 -95 -5 -87 -10 9 -5 4 -8 -15 -7 -15 0 -37
-3 -49 -7 -15 -5 -21 -3 -21 8 0 8 5 14 11 13 6 -2 25 7 43 20 35 25 47 28 38
10 -4 -7 0 -5 8 5 8 9 22 17 31 17 9 0 16 4 16 10 0 5 7 6 17 3 10 -4 14 -2
10 4 -3 5 -1 10 6 11 28 2 84 20 117 37 34 17 49 21 99 24 13 0 21 4 17 8 -10
10 144 44 169 37 16 -4 17 -3 5 5 -13 9 -12 11 5 12 11 1 26 1 33 0 6 -1 12 4
12 11 0 9 3 9 10 -2 8 -12 10 -12 10 -1 0 8 7 11 20 8 11 -3 20 -1 20 3 0 5
28 10 63 13 34 3 87 10 117 16 30 6 90 12 132 13 42 1 75 4 73 8 -5 8 158 10
314 3z m156 -21 c-3 -3 -11 0 -18 7 -9 10 -8 11 6 5 10 -3 15 -9 12 -12z m615
-33 c0 -5 5 -7 12 -3 7 4 8 3 4 -4 -4 -6 -13 -9 -21 -5 -17 6 -20 23 -5 23 6
0 10 -5 10 -11z m-33 -5 c-3 -3 -12 -4 -19 -1 -8 3 -5 6 6 6 11 1 17 -2 13 -5z
m-2152 -234 c-3 -5 -11 -10 -16 -10 -6 0 -7 5 -4 10 3 6 11 10 16 10 6 0 7 -4
4 -10z"/>
<path d="M3408 4773 c6 -2 18 -2 25 0 6 3 1 5 -13 5 -14 0 -19 -2 -12 -5z"/>
<path d="M3935 4723 c-299 -25 -497 -68 -719 -159 -128 -53 -145 -64 -96 -64
77 0 249 -53 365 -112 l49 -26 75 51 c94 63 228 126 356 167 55 18 110 36 123
41 28 11 29 -6 2 -41 -11 -14 -20 -29 -20 -34 0 -5 -12 -24 -26 -43 -29 -39
-27 -48 7 -34 25 10 521 147 642 177 37 9 66 18 65 19 -6 6 -296 45 -408 55
-107 9 -321 11 -415 3z m300 -27 c190 -7 424 -29 360 -35 l-20 -2 20 -9 c15
-6 8 -9 -27 -9 -26 -1 -50 -6 -54 -12 -3 -6 -15 -9 -25 -6 -11 3 -17 1 -14 -3
6 -9 -81 -30 -125 -30 -17 0 -30 -4 -30 -8 0 -10 -68 -32 -99 -32 -12 0 -19
-4 -16 -10 3 -6 -1 -7 -10 -4 -8 4 -21 2 -28 -4 -20 -16 -77 -20 -77 -5 0 7 4
13 9 13 5 0 13 9 16 20 3 11 13 20 21 20 9 0 12 -5 8 -12 -5 -7 -3 -8 6 -3 10
6 7 12 -11 26 -13 10 -20 21 -16 25 4 4 7 1 7 -6 0 -7 2 -11 5 -8 3 3 3 12 0
20 -4 10 -23 15 -56 17 -31 1 -48 -2 -45 -8 4 -5 -3 -7 -16 -3 -13 3 -19 1
-15 -5 5 -7 0 -9 -13 -6 -11 3 -20 0 -20 -6 0 -7 -10 -9 -27 -5 -23 4 -25 3
-13 -6 12 -9 9 -11 -17 -6 -26 4 -31 2 -26 -9 3 -10 1 -13 -9 -10 -15 6 -71
-18 -63 -27 3 -3 -11 -4 -32 -2 -25 2 -32 0 -23 -6 11 -7 7 -11 -18 -16 -25
-5 -30 -9 -20 -16 9 -7 8 -8 -6 -4 -11 4 -22 3 -25 -1 -8 -11 -120 -84 -124
-81 -2 2 -10 -2 -18 -9 -19 -15 -113 13 -102 31 4 6 -2 4 -12 -4 -11 -9 -16
-10 -11 -2 4 7 2 12 -6 12 -9 0 -9 3 2 10 12 8 11 10 -5 8 -25 -4 -175 33
-175 43 0 3 -12 4 -27 1 -26 -5 -27 -4 -10 12 9 10 22 14 29 10 7 -4 10 -3 5
1 -8 9 40 30 108 46 22 6 48 15 58 20 10 5 23 7 29 3 7 -5 9 -2 5 8 -3 9 0 15
6 15 20 -2 141 15 151 21 5 3 27 7 50 9 22 2 42 7 46 11 7 10 78 16 206 16 85
1 110 4 107 13 -4 10 6 12 38 8 24 -3 112 -7 194 -9z"/>
<path d="M3848 4673 c7 -3 16 -2 19 1 4 3 -2 6 -13 5 -11 0 -14 -3 -6 -6z"/>
<path d="M4658 4583 c7 -3 16 -2 19 1 4 3 -2 6 -13 5 -11 0 -14 -3 -6 -6z"/>
<path d="M2549 4490 c-348 -29 -722 -112 -828 -185 -78 -54 -126 -183 -167
-450 -23 -147 -27 -515 -7 -581 19 -61 54 -108 90 -118 22 -7 33 -17 36 -35 3
-14 8 -33 11 -41 5 -13 -9 -16 -86 -18 -124 -4 -282 -27 -248 -35 26 -7 672
-123 975 -176 94 -16 300 -53 458 -80 287 -51 288 -51 507 -51 323 0 652 26
1005 80 182 28 206 38 90 39 -49 1 -178 6 -286 12 -190 12 -251 9 -220 -11 8
-4 38 -7 67 -6 29 1 51 0 49 -3 -2 -3 22 -4 52 -3 35 3 59 -1 67 -8 8 -10 7
-11 -8 -6 -13 4 -17 2 -13 -8 4 -9 0 -15 -11 -15 -9 1 -53 -2 -97 -6 -44 -4
-103 -8 -132 -8 -28 -1 -47 -5 -41 -8 6 -4 -42 -5 -107 -2 -75 3 -115 1 -111
-5 3 -5 -7 -12 -24 -14 -16 -2 -27 -1 -24 4 3 4 -4 8 -15 8 -11 0 -23 -4 -26
-10 -9 -15 -438 -11 -447 4 -4 6 -31 12 -60 13 -59 2 -101 7 -138 17 -50 12
-86 18 -150 26 -76 9 -161 29 -175 41 -5 5 -16 9 -25 9 -13 0 -13 -1 0 -10 19
-12 4 -13 -18 -1 -9 5 -39 11 -67 14 -88 10 -189 28 -195 35 -3 4 -27 8 -55
10 -78 4 -185 24 -179 33 3 5 -2 6 -10 3 -9 -3 -16 -2 -16 2 0 5 -19 9 -42 8
-24 0 -79 7 -123 17 -44 9 -83 15 -87 12 -5 -2 -8 1 -8 6 0 7 -24 11 -59 11
-33 0 -63 5 -66 10 -3 6 -21 10 -38 10 -19 0 -27 3 -20 8 7 4 35 8 63 7 27 -1
50 3 50 8 0 5 11 2 25 -7 18 -12 24 -13 23 -4 -2 7 3 12 10 10 8 -1 11 2 7 8
-3 5 -2 10 4 10 7 0 7 8 1 25 -6 15 -6 26 0 30 6 4 10 -3 10 -15 0 -14 4 -19
13 -14 6 4 9 4 5 -1 -4 -4 0 -14 10 -22 16 -12 15 -13 -3 -6 -11 3 -17 3 -13
-2 4 -4 26 -8 48 -9 37 -2 54 6 55 26 0 4 8 16 17 28 12 13 14 20 5 20 -8 0
-8 3 2 9 19 12 8 134 -16 170 -10 14 -17 29 -16 32 1 4 -6 5 -16 2 -10 -3 -22
0 -25 6 -5 7 -1 8 10 4 12 -4 15 -3 10 6 -5 7 -14 10 -22 7 -7 -3 -16 -1 -19
5 -4 5 -11 7 -16 3 -5 -3 -7 -10 -3 -15 3 -5 10 -7 15 -4 5 4 9 1 9 -4 0 -10
-29 -16 -53 -12 -5 1 -6 -3 -2 -9 3 -6 11 -8 16 -5 5 3 6 -1 3 -10 -4 -9 -12
-14 -18 -12 -8 3 -10 -7 -7 -31 3 -31 2 -35 -11 -25 -12 10 -14 5 -12 -36 3
-48 2 -48 -22 -37 -13 6 -24 14 -24 19 0 4 -7 7 -15 7 -19 0 -35 31 -36 72 0
27 -2 30 -9 13 -7 -16 -9 -12 -9 20 -1 22 -5 46 -10 54 -5 7 -6 22 -4 32 5 19
6 19 23 -1 12 -14 32 -21 67 -22 39 -2 49 -6 46 -18 -3 -8 5 0 17 19 38 60 44
63 113 52 4 0 7 -7 7 -14 0 -7 8 -20 19 -29 10 -8 20 -21 23 -28 2 -6 27 -12
60 -13 48 -1 55 -4 45 -16 -10 -12 -9 -12 11 -2 13 7 33 9 45 5 12 -4 34 -7
49 -6 16 0 28 -4 28 -9 0 -5 12 -6 26 -3 17 5 25 3 21 -3 -4 -7 22 -13 71 -16
119 -9 176 -19 184 -31 5 -7 8 -6 8 4 0 13 1 13 10 0 6 -9 5 -17 -3 -23 -7 -6
-4 -6 8 -2 11 4 25 8 32 8 6 0 9 6 6 14 -3 7 0 13 5 13 6 0 16 16 23 35 7 19
17 35 21 35 4 0 8 9 8 20 0 11 3 20 8 21 13 1 37 7 57 14 17 6 18 5 5 -5 -12
-10 -11 -11 9 -6 32 7 70 -12 50 -25 -11 -7 -10 -9 5 -9 12 0 16 -5 13 -14 -4
-10 -1 -13 7 -10 7 3 19 -2 25 -10 11 -13 9 -17 -13 -26 -14 -5 -26 -12 -26
-15 0 -2 12 0 27 6 28 11 47 -4 38 -29 -3 -7 -1 -10 5 -7 8 5 50 -115 50 -144
0 -7 5 -9 12 -5 8 5 9 2 5 -9 -4 -10 -2 -16 6 -14 7 1 11 -4 9 -11 -1 -8 1
-11 5 -9 5 3 35 0 68 -5 61 -10 87 -13 140 -17 l30 -3 -28 -8 c-15 -5 -41 -5
-57 0 -16 5 -38 6 -50 3 -11 -3 -26 0 -34 6 -11 9 -18 8 -30 -4 -9 -9 -16 -19
-16 -23 0 -3 5 -1 10 4 7 7 30 7 73 -2 81 -16 355 -34 532 -34 l140 0 22 -40
c12 -22 18 -40 15 -40 -42 1 -449 55 -637 85 -100 16 -142 19 -131 8 7 -8 121
-31 186 -39 50 -5 68 -13 51 -23 -7 -4 16 -6 51 -4 35 3 88 -1 118 -7 85 -18
91 -18 155 -20 48 -2 54 -4 30 -9 -20 -5 4 -9 75 -12 85 -3 107 -1 116 11 13
16 9 53 -6 58 -5 2 -10 8 -10 13 0 4 8 6 18 3 14 -5 14 -4 2 4 -8 6 -18 8 -22
6 -4 -3 -8 1 -8 8 0 8 -12 18 -27 24 -21 7 -6 10 68 12 118 4 175 9 219 19 19
5 58 9 86 8 40 0 50 3 46 14 -3 8 -1 12 5 8 6 -4 16 0 23 8 7 8 16 12 21 9 5
-3 8 -2 7 3 -1 4 2 17 8 28 6 11 10 33 10 50 -1 28 -4 30 -43 36 -24 3 -43 2
-43 -3 0 -4 -5 -8 -11 -8 -6 0 -9 9 -6 20 3 13 1 18 -6 13 -7 -3 -3 3 7 15 14
17 16 22 5 22 -8 1 -2 8 14 16 15 8 33 12 39 8 7 -4 8 -3 4 4 -6 11 5 15 31
11 3 0 10 6 15 15 17 30 24 16 18 -36 -4 -36 -9 -52 -18 -50 -8 1 -11 -2 -7
-8 3 -6 11 -8 16 -4 12 7 0 -70 -17 -113 -8 -17 -24 -39 -36 -47 -12 -9 -17
-16 -10 -16 10 0 10 -3 0 -14 -7 -8 -16 -12 -19 -10 -3 2 -16 -7 -29 -21 -12
-13 -28 -21 -35 -19 -7 3 -16 0 -21 -7 -5 -8 -3 -10 7 -4 12 8 12 6 0 -8 -13
-16 -14 -16 -28 0 -8 10 -12 12 -8 5 3 -6 -1 -15 -9 -18 -9 -3 -13 -10 -10
-15 3 -5 -1 -9 -8 -9 -7 0 -19 -9 -26 -20 -16 -26 -12 -25 45 7 131 72 190
130 219 214 26 75 27 333 1 429 -24 88 -70 184 -118 247 -35 45 -42 62 -50
125 -5 39 -14 77 -19 82 -6 6 -33 11 -60 12 l-48 0 -80 95 c-124 148 -202 214
-317 269 -55 27 -135 58 -177 70 -182 50 -502 77 -709 60z m234 -27 c-13 -2
-33 -2 -45 0 -13 2 -3 4 22 4 25 0 35 -2 23 -4z m300 -53 c148 -26 260 -61
362 -113 95 -49 223 -172 350 -336 44 -57 104 -133 134 -169 57 -68 121 -168
121 -187 0 -6 -44 -23 -97 -38 -114 -32 -271 -47 -489 -47 -148 0 -151 0 -174
25 -29 31 -58 39 -245 65 -82 12 -158 23 -168 26 -30 9 -31 -26 -3 -113 19
-56 35 -88 50 -99 31 -19 234 -59 416 -80 248 -28 589 -7 723 45 39 15 37 16
37 -33 0 -44 0 -44 -50 -62 -28 -10 -57 -25 -64 -34 -16 -18 -29 -97 -18 -104
5 -3 32 -2 60 3 52 8 52 8 52 -18 0 -80 -74 -102 -407 -121 -195 -12 -479 -1
-683 26 -162 21 -155 18 -169 73 -27 106 -105 236 -164 271 -79 48 -149 10
-182 -99 -6 -20 -11 -22 -39 -17 -17 4 -148 25 -291 46 -210 33 -261 43 -269
58 -47 83 -135 97 -165 24 -11 -27 -14 -28 -61 -22 -27 4 -52 9 -55 12 -3 3
-10 30 -15 59 -21 128 18 492 70 661 46 148 83 176 310 235 109 28 370 70 510
83 158 14 478 4 613 -20z m217 -20 c0 -5 -2 -10 -4 -10 -3 0 -8 5 -11 10 -3 6
-1 10 4 10 6 0 11 -4 11 -10z m124 -49 c4 -5 -3 -7 -14 -4 -23 6 -26 13 -6 13
8 0 17 -4 20 -9z m50 -27 c7 -19 2 -18 -19 6 -16 17 -16 20 -3 15 9 -4 19 -13
22 -21z m161 -124 c10 -11 16 -20 13 -20 -3 0 -13 9 -23 20 -10 11 -16 20 -13
20 3 0 13 -9 23 -20z m200 -228 c-3 -3 -11 0 -18 7 -9 10 -8 11 6 5 10 -3 15
-9 12 -12z m72 4 c19 -3 28 -16 12 -16 -12 0 -12 -2 0 -9 8 -5 16 -20 17 -33
1 -13 4 -38 5 -55 2 -18 7 -33 13 -33 5 0 6 -3 3 -7 -4 -3 -18 4 -32 17 -18
17 -22 27 -14 36 7 8 6 14 -2 20 -8 5 -10 3 -4 -7 6 -11 5 -12 -6 -1 -10 9
-10 15 -1 24 7 7 12 16 12 21 0 5 -9 -1 -19 -14 l-19 -24 -7 27 c-4 16 -11 26
-15 23 -5 -3 -12 0 -16 6 -4 8 -3 9 4 5 7 -4 12 -2 12 4 0 7 7 10 18 6 14 -5
13 -3 -3 10 -20 16 -19 16 5 10 14 -4 30 -8 37 -10z m67 -182 c3 -8 2 -12 -4
-9 -6 3 -10 10 -10 16 0 14 7 11 14 -7z m-1026 -206 c2 -16 8 -28 13 -28 11 0
12 -27 2 -33 -5 -2 -2 -2 5 -1 6 2 12 -3 12 -11 0 -8 9 -29 20 -47 22 -36 27
-59 9 -41 -6 6 -18 9 -27 6 -11 -5 -13 -3 -7 8 7 11 6 12 -7 2 -12 -11 -19
-10 -36 6 -22 18 -31 48 -12 36 15 -9 12 4 -5 21 -8 9 -15 25 -15 37 0 12 -7
31 -15 41 -19 25 -14 31 27 31 29 0 33 -4 36 -27z m182 -14 c52 -8 103 -23
112 -31 20 -18 55 -119 45 -129 -9 -9 -206 15 -235 29 -16 8 -29 26 -37 52 -6
22 -19 55 -29 73 l-17 33 33 -5 c18 -3 76 -13 128 -22z m944 10 c3 -8 2 -12
-4 -9 -6 3 -10 10 -10 16 0 14 7 11 14 -7z m-4 -70 c7 -31 8 -60 3 -65 -12
-12 -135 -39 -146 -32 -12 7 -3 101 10 114 9 9 87 34 115 38 4 1 12 -24 18
-55z m43 14 c5 -38 -2 -56 -14 -37 -11 18 -11 69 0 69 5 0 11 -15 14 -32z
m-718 -25 c59 -3 351 11 463 21 l32 4 0 -49 c0 -29 6 -53 15 -63 16 -15 20
-37 8 -35 -29 5 -133 -2 -129 -9 5 -8 -300 -6 -349 2 -16 3 -48 6 -70 7 -58 1
-75 8 -68 25 3 8 12 13 19 10 8 -3 14 -1 14 4 0 6 -4 10 -10 10 -5 0 -10 9
-10 21 0 13 4 18 12 13 7 -4 8 -3 4 5 -4 6 -11 9 -16 6 -5 -3 -11 -1 -15 5 -3
5 -1 10 6 10 7 0 5 8 -7 21 l-19 22 25 -13 c14 -8 57 -15 95 -17z m719 -83 c6
-33 5 -34 -7 -12 -7 12 -16 19 -20 16 -4 -4 -7 -3 -7 2 0 10 22 36 26 31 2 -1
5 -18 8 -37z m-2292 -130 c31 -61 21 -178 -16 -202 -38 -26 -76 31 -76 114 0
119 52 169 92 88z m-112 -80 c0 -5 -2 -10 -4 -10 -3 0 -8 5 -11 10 -3 6 -1 10
4 10 6 0 11 -4 11 -10z m1385 -190 c-3 -5 -10 -10 -16 -10 -5 0 -9 5 -9 10 0
6 7 10 16 10 8 0 12 -4 9 -10z m103 -7 c-15 -2 -42 -2 -60 0 -18 2 -6 4 27 4
33 0 48 -2 33 -4z m109 1 c-3 -3 -12 -4 -19 -1 -8 3 -5 6 6 6 11 1 17 -2 13
-5z m86 -21 c-7 -2 -19 -2 -25 0 -7 3 -2 5 12 5 14 0 19 -2 13 -5z m85 0 c-10
-2 -26 -2 -35 0 -10 3 -2 5 17 5 19 0 27 -2 18 -5z"/>
<path d="M2673 4264 c-23 -10 -14 -40 48 -171 122 -258 132 -272 211 -294 70
-18 263 -29 543 -28 320 1 369 5 373 35 5 33 -223 341 -281 378 -28 19 -132
41 -290 62 -120 16 -580 29 -604 18z m436 -24 c33 0 34 -1 15 -15 -15 -11 -16
-17 -6 -23 7 -5 12 -15 10 -22 -2 -7 4 -14 13 -15 20 -4 69 -49 69 -64 0 -7 5
-9 10 -6 6 3 10 1 10 -5 0 -6 14 -23 31 -37 16 -14 28 -32 25 -39 -3 -7 0 -16
6 -20 6 -4 8 -3 4 4 -3 6 -2 13 4 17 5 3 10 1 10 -5 0 -6 15 -26 34 -45 19
-18 31 -37 27 -41 -3 -4 0 -4 7 0 6 4 12 3 12 -2 0 -18 72 -82 101 -89 16 -5
82 -6 148 -3 103 4 122 8 134 24 13 18 15 17 36 -12 14 -21 18 -33 10 -37 -6
-4 -175 -7 -375 -6 -318 0 -367 3 -391 17 -27 15 -27 15 -8 -1 l20 -18 -20 8
c-11 4 -33 10 -50 13 -16 2 -36 9 -43 15 -7 5 -15 7 -19 3 -3 -3 0 -6 7 -6 7
0 11 -3 8 -6 -4 -3 -21 3 -40 12 -18 10 -36 17 -40 16 -5 -1 -8 7 -8 19 0 13
4 18 12 13 7 -4 8 -3 4 4 -4 7 -13 12 -19 12 -13 0 -47 50 -47 69 0 7 -9 21
-20 33 -11 12 -20 30 -20 41 0 10 -9 30 -19 44 -11 13 -17 31 -14 40 5 12 3
14 -7 8 -10 -6 -12 -4 -7 7 3 9 -2 23 -13 33 -11 10 -17 22 -14 27 3 5 1 14
-5 21 -7 10 -2 13 21 15 18 2 34 5 37 8 4 4 78 4 166 0 88 -3 175 -6 194 -6z
m189 -35 c53 -6 196 -30 234 -41 17 -5 111 -127 183 -236 21 -32 42 -55 47
-52 5 3 7 13 4 21 -3 8 -1 11 4 8 13 -8 12 -16 -5 -38 -12 -17 -28 -19 -151
-18 l-138 2 -55 62 c-31 34 -110 118 -176 185 l-120 124 58 -6 c31 -3 83 -8
115 -11z m367 -163 c-3 -3 -11 0 -18 7 -9 10 -8 11 6 5 10 -3 15 -9 12 -12z
m58 -85 c-3 -4 -6 -7 -7 -5 -1 2 -8 12 -16 22 -14 18 -14 18 7 6 12 -8 19 -18
16 -23z m24 -29 c2 -17 0 -19 -7 -8 -5 8 -6 18 -4 22 8 12 10 10 11 -14z"/>
<path d="M2760 4141 c0 -6 4 -13 10 -16 6 -3 7 1 4 9 -7 18 -14 21 -14 7z"/>
<path d="M3255 4151 c-3 -5 -2 -12 3 -15 5 -3 9 1 9 9 0 17 -3 19 -12 6z"/>
<path d="M2432 4219 c-11 -4 -22 -15 -26 -25 -6 -17 -26 -265 -26 -336 0 -44
21 -68 61 -68 23 0 29 -5 29 -20 0 -55 44 -95 90 -83 21 6 50 50 50 76 0 11
10 12 56 5 64 -10 77 -5 68 25 -12 42 -116 282 -151 349 -43 82 -82 102 -151
77z m85 -22 c7 0 25 -25 39 -56 15 -31 38 -76 50 -101 23 -49 23 -80 -2 -59
-8 6 -11 16 -7 22 4 6 1 7 -7 2 -8 -5 -26 -9 -40 -10 -68 -3 -80 -6 -88 -22
-5 -10 -6 -38 -3 -63 l7 -45 8 53 8 52 59 0 59 0 0 -33 c0 -18 6 -42 14 -52
13 -18 14 -18 9 9 -5 23 -3 27 8 21 12 -8 12 -6 0 8 -9 12 -10 17 -2 17 7 0 9
5 6 10 -3 6 -2 10 3 10 5 0 14 -19 21 -42 7 -24 17 -51 23 -62 6 -12 6 -16 -1
-11 -6 3 -11 1 -11 -4 0 -6 7 -11 15 -11 8 0 15 -9 15 -19 0 -17 -5 -19 -33
-14 -17 2 -48 0 -67 -5 -21 -6 -27 -11 -15 -11 15 -1 17 -4 7 -10 -7 -4 -14
-15 -16 -23 -3 -23 -27 -49 -38 -42 -5 3 -4 12 3 20 10 12 9 13 -5 8 -9 -3
-16 -11 -16 -17 0 -23 -13 4 -16 34 -5 39 -26 64 -55 66 -23 2 -39 18 -39 41
0 7 5 10 11 6 8 -4 8 -1 1 13 -6 11 -8 61 -6 123 7 134 9 153 18 168 4 7 4 17
0 24 -4 6 -3 8 2 5 6 -3 16 -2 24 4 8 5 22 6 30 3 8 -4 20 -7 27 -7z"/>
<path d="M2470 4196 c0 -2 7 -7 16 -10 8 -3 12 -2 9 4 -6 10 -25 14 -25 6z"/>
<path d="M2576 4024 c-5 -14 -4 -15 9 -4 17 14 19 20 6 20 -5 0 -12 -7 -15
-16z"/>
<path d="M2486 3894 c-9 -23 -7 -27 7 -17 19 14 70 15 79 1 6 -10 8 -10 8 0 0
7 4 10 10 7 6 -3 7 1 4 9 -9 23 -99 22 -108 0z"/>
<path d="M2584 3848 c-10 -12 -14 -18 -7 -15 6 4 13 4 16 0 2 -5 3 -3 1 3 -1
6 3 17 9 23 6 6 9 11 6 11 -3 0 -14 -10 -25 -22z"/>
<path d="M2650 3859 c0 -5 -4 -8 -9 -4 -5 3 -12 1 -15 -4 -4 -5 2 -8 11 -7 15
3 33 26 19 26 -3 0 -6 -5 -6 -11z"/>
<path d="M2155 4189 c-183 -24 -410 -68 -430 -83 -21 -15 -46 -144 -48 -246
l-2 -85 68 0 c550 3 567 4 576 28 14 33 29 380 18 395 -11 15 -7 15 -182 -9z
m160 -106 c-3 -49 -8 -111 -11 -139 l-5 -52 -75 24 c-41 13 -81 24 -90 24 -12
0 -14 18 -12 109 2 60 5 108 8 106 3 -1 28 1 55 5 28 4 69 8 93 9 l43 1 -6
-87z m-208 0 c-4 -38 -7 -82 -7 -99 l0 -32 -90 29 c-49 16 -97 26 -107 23 -17
-5 -17 -5 0 6 12 8 17 24 17 60 l0 48 73 12 c39 6 77 13 82 15 35 12 38 6 32
-62z m-210 -59 c-2 -3 -42 6 -87 19 -94 27 -93 34 15 58 l70 15 3 -44 c2 -24
1 -46 -1 -48z m-152 16 c3 -5 12 -7 20 -3 8 3 15 1 15 -5 0 -6 10 -8 23 -5 18
4 19 3 7 -7 -13 -9 -12 -11 5 -9 11 1 22 0 25 -1 3 -1 12 -3 20 -5 102 -26
191 -54 175 -55 l-20 -1 20 -9 c28 -12 37 -12 29 1 -4 8 1 9 17 4 13 -4 26
-12 27 -16 2 -5 8 -7 12 -4 5 3 28 -2 52 -11 24 -8 62 -20 85 -25 40 -10 42
-12 41 -44 -1 -38 -25 -51 -46 -25 -11 13 -12 13 -10 0 3 -13 -26 -15 -204
-17 -113 -1 -224 -2 -245 -3 -21 -1 -52 -2 -70 -1 -31 1 -32 2 -29 39 2 20 4
53 5 72 1 27 4 32 11 20 7 -10 8 -2 4 29 -6 36 -5 43 7 36 11 -6 12 -5 2 6 -7
7 -13 18 -13 24 0 5 5 3 11 -5 9 -12 10 -11 6 8 -5 22 7 30 18 12z"/>
<path d="M2222 4125 c10 -11 48 -14 48 -4 0 5 -12 9 -27 9 -14 0 -24 -2 -21
-5z"/>
<path d="M1736 4192 c-3 -5 1 -9 9 -9 8 0 12 4 9 9 -3 4 -7 8 -9 8 -2 0 -6 -4
-9 -8z"/>
<path d="M2352 3692 c-2 -55 -4 -63 -19 -58 -10 3 -81 15 -158 27 -142 21
-536 39 -571 25 -15 -6 -16 -9 -3 -21 12 -12 21 -13 45 -4 22 9 80 9 224 1
107 -6 210 -11 227 -11 18 0 46 -7 62 -15 18 -10 41 -13 66 -9 29 5 36 3 30
-6 -6 -10 4 -12 43 -10 l51 4 3 -73 c3 -73 -4 -86 -29 -54 -8 9 -11 11 -7 3 5
-9 1 -12 -12 -7 -51 15 -124 27 -184 30 -37 2 -72 6 -77 9 -13 8 -272 22 -362
20 -143 -4 -92 -20 86 -26 175 -7 365 -25 513 -50 l75 -13 6 -67 c3 -37 9 -70
14 -74 4 -5 5 25 1 65 -6 71 -6 72 16 67 82 -18 107 -21 138 -12 19 5 50 6 70
3 19 -4 43 -7 52 -8 9 -1 15 -4 13 -7 -7 -6 89 -106 99 -103 5 2 6 -4 3 -12
-4 -9 0 -22 8 -30 8 -7 11 -17 7 -21 -4 -5 -2 -5 5 -1 14 8 -1 58 -23 77 -7 6
-11 16 -7 23 3 6 3 8 -2 4 -9 -8 -42 32 -37 45 1 5 -2 6 -8 2 -9 -6 -14 8 -11
28 1 5 -3 6 -8 2 -6 -3 -24 1 -40 9 -19 10 -59 16 -117 16 -49 0 -106 1 -126
2 l-36 2 -7 69 c-4 37 -5 70 -2 73 3 3 13 1 24 -4 19 -10 89 -30 138 -39 17
-3 35 -10 41 -14 6 -5 19 -7 28 -3 9 3 16 1 16 -5 0 -5 19 -15 43 -21 23 -6
50 -15 59 -20 10 -6 27 -10 38 -10 11 0 20 -3 20 -8 0 -4 9 -13 21 -20 12 -8
18 -9 15 -3 -4 7 -1 8 8 5 9 -3 13 -11 9 -17 -4 -6 0 -8 9 -4 9 3 21 0 27 -6
8 -8 14 -8 22 0 8 8 3 15 -19 27 -93 48 -327 127 -439 149 l-62 11 -4 66 -3
65 -2 -63z"/>
<path d="M2904 3384 c-18 -14 -18 -15 4 -4 12 6 22 13 22 15 0 8 -5 6 -26 -11z"/>
<path d="M3025 3368 c22 -15 72 -33 120 -44 66 -14 152 -26 185 -25 23 0 29
-3 17 -7 -15 -6 107 -15 198 -15 58 1 186 12 196 18 5 4 26 8 47 10 20 2 48 9
62 15 23 9 22 10 -10 6 -289 -39 -481 -27 -805 49 -28 7 -29 6 -10 -7z"/>
<path d="M4020 3330 c-8 -5 -10 -10 -5 -10 6 0 17 5 25 10 8 5 11 10 5 10 -5
0 -17 -5 -25 -10z"/>
<path d="M3857 3269 c7 -7 15 -10 18 -7 3 3 -2 9 -12 12 -14 6 -15 5 -6 -5z"/>
<path d="M3023 3215 c2 -25 6 -47 8 -49 6 -7 157 -26 200 -26 43 0 46 7 28 58
-8 24 -18 33 -42 37 -35 5 -185 25 -194 25 -3 0 -3 -20 0 -45z m72 15 c3 -5
23 -9 43 -9 59 1 76 -3 90 -20 8 -10 11 -10 6 -2 -4 9 -3 12 3 8 6 -4 13 -16
16 -28 5 -20 3 -20 -56 -14 -150 16 -157 19 -157 51 0 19 5 24 24 24 14 0 28
-4 31 -10z"/>
<path d="M3835 3251 c-3 -5 -2 -12 3 -15 5 -3 9 1 9 9 0 17 -3 19 -12 6z"/>
<path d="M3800 3210 c-30 -5 -131 -8 -224 -9 -149 -1 -167 -3 -162 -17 3 -9 6
-25 6 -36 0 -21 3 -21 218 -15 119 3 226 9 237 12 17 5 20 13 17 41 -5 37 -1
36 -92 24z m72 -42 c-5 -5 -50 -10 -101 -11 -50 -1 -91 -4 -91 -7 0 -3 -26 -4
-57 -3 -32 1 -88 2 -124 2 -52 1 -66 4 -66 16 0 13 18 15 106 14 104 -2 302 9
310 17 9 8 31 -20 23 -28z"/>
<path d="M1778 3383 c6 -2 18 -2 25 0 6 3 1 5 -13 5 -14 0 -19 -2 -12 -5z"/>
<path d="M2524 3300 c2 -16 20 -14 24 2 3 10 2 10 -6 -1 -7 -9 -11 -10 -15 -2
-4 7 -5 8 -3 1z"/>
<path d="M2646 3288 c3 -5 10 -6 15 -3 13 9 11 12 -6 12 -8 0 -12 -4 -9 -9z"/>
<path d="M2579 3283 c-26 -6 -59 -76 -59 -124 0 -93 18 -160 50 -191 23 -22
36 -27 53 -22 12 4 24 11 25 15 2 5 7 7 12 4 11 -7 35 100 32 140 -5 63 -34
167 -43 153 -8 -13 -13 -3 -9 17 1 6 -2 7 -5 3 -4 -4 -15 -4 -24 1 -9 4 -23 6
-32 4z m57 -60 c23 -48 31 -187 12 -223 -8 -14 -23 -26 -35 -28 -36 -5 -66 65
-66 159 -1 121 49 173 89 92z"/>
<path d="M2054 3229 c-3 -6 -14 -9 -23 -6 -38 10 -11 -60 29 -76 8 -3 -8 -3
-37 -1 -29 3 -54 0 -58 -6 -11 -17 -28 -11 -20 8 5 14 4 15 -6 5 -10 -10 -10
-16 -2 -24 9 -9 8 -16 -3 -27 -13 -12 -13 -16 -2 -23 7 -5 8 -9 2 -9 -6 0 -11
-7 -11 -15 0 -8 4 -12 9 -9 5 3 14 1 21 -5 11 -9 90 -13 362 -22 49 -1 55 -3
30 -9 l-30 -8 32 -1 c17 0 34 5 36 12 4 9 8 9 14 1 12 -17 77 -11 97 8 16 17
16 18 -8 30 -29 13 -31 20 -14 48 10 15 9 24 -2 45 -9 16 -17 22 -23 16 -7 -7
-17 -7 -29 0 -10 5 -18 7 -18 4 0 -3 -8 -1 -19 4 -10 6 -45 13 -77 16 -33 3
-90 12 -129 21 -38 9 -78 16 -87 17 -9 1 -14 5 -12 9 3 4 1 8 -5 8 -5 0 -13
-5 -17 -11z m201 -56 c182 -34 221 -45 210 -63 -3 -6 -336 48 -401 64 -21 6
-35 36 -16 36 4 0 97 -17 207 -37z m-25 -88 c229 -40 303 -58 205 -50 -33 3
-153 8 -267 12 -225 7 -217 4 -202 61 5 19 12 22 33 18 14 -3 118 -22 231 -41z
m0 36 c0 -4 11 -6 24 -4 13 3 32 0 43 -6 14 -9 9 -10 -27 -6 -25 3 -63 9 -85
14 l-40 9 43 1 c23 0 42 -3 42 -8z m179 -31 c10 -5 10 -9 2 -14 -6 -4 -11 -2
-11 3 0 6 -12 11 -27 11 -16 0 -35 5 -43 10 -18 11 56 2 79 -10z m41 -20 c0
-5 -2 -10 -4 -10 -3 0 -8 5 -11 10 -3 6 -1 10 4 10 6 0 11 -4 11 -10z"/>
<path d="M2450 3216 c0 -2 7 -7 16 -10 8 -3 12 -2 9 4 -6 10 -25 14 -25 6z"/>
<path d="M1965 3190 c3 -6 1 -10 -6 -10 -7 0 -10 -3 -6 -6 3 -3 13 -2 22 4 16
8 16 9 1 15 -10 4 -15 3 -11 -3z"/>
<path d="M2400 3186 c0 -2 7 -7 16 -10 8 -3 12 -2 9 4 -6 10 -25 14 -25 6z"/>
<path d="M2710 3070 c0 -10 4 -22 10 -25 6 -3 7 1 4 10 -5 13 -2 15 20 9 36
-9 33 2 -4 15 -26 9 -30 8 -30 -9z"/>
<path d="M1608 3013 c7 -3 16 -2 19 1 4 3 -2 6 -13 5 -11 0 -14 -3 -6 -6z"/>
<path d="M4133 2975 c0 -8 4 -12 9 -9 5 3 6 10 3 15 -9 13 -12 11 -12 -6z"/>
<path d="M4058 2813 c7 -3 16 -2 19 1 4 3 -2 6 -13 5 -11 0 -14 -3 -6 -6z"/>
<path d="M4453 2785 c0 -8 4 -12 9 -9 5 3 6 10 3 15 -9 13 -12 11 -12 -6z"/>
<path d="M1115 2746 c-64 -20 -99 -42 -147 -90 -84 -85 -124 -202 -116 -335 7
-109 42 -172 123 -214 73 -38 250 -24 313 26 11 8 19 127 8 127 -2 0 -28 -11
-58 -25 -90 -42 -176 -29 -208 31 -10 17 -15 56 -15 108 1 87 24 157 68 204
60 65 160 80 239 38 l46 -24 16 66 c9 36 15 66 14 67 -50 34 -205 46 -283 21z
m160 -16 c-37 -7 -35 -7 23 -9 l63 -1 -2 -49 -2 -48 -28 16 c-15 8 -25 19 -23
23 3 5 -26 8 -65 8 -38 0 -73 -4 -76 -10 -3 -5 -15 -10 -26 -10 -11 0 -22 -6
-25 -14 -3 -8 -12 -12 -20 -9 -8 3 -14 -1 -14 -11 0 -8 -11 -23 -25 -32 -14
-9 -25 -25 -25 -35 0 -11 -11 -41 -23 -68 -28 -56 -36 -163 -15 -189 10 -12
10 -14 1 -8 -27 16 3 -34 34 -57 18 -13 30 -27 26 -31 -4 -4 -1 -4 8 -1 8 3
23 -1 33 -8 16 -12 28 -11 80 3 33 9 67 15 75 12 8 -3 11 0 7 7 -4 6 -2 11 3
11 12 0 14 -23 5 -58 -5 -18 -9 -20 -20 -11 -12 10 -13 9 -8 -5 6 -14 -5 -21
-28 -17 -5 0 -8 -4 -8 -10 0 -17 -185 -8 -202 10 -11 11 -9 12 12 7 21 -6 22
-5 8 4 -13 8 -24 8 -40 -1 -22 -12 -22 -11 -8 6 9 11 10 16 3 11 -14 -8 -57
17 -46 27 3 4 1 7 -5 7 -7 0 -12 7 -12 15 0 8 -4 15 -10 15 -6 0 -10 53 -10
139 0 113 3 141 15 151 9 7 14 19 11 26 -3 9 1 11 12 7 14 -6 15 -4 4 9 -11
13 -7 22 27 58 22 23 44 39 50 36 6 -4 9 -1 6 6 -5 12 47 52 67 53 3 0 10 3
14 8 4 4 26 7 48 7 26 0 36 3 28 9 -8 4 19 8 65 8 62 0 70 -1 38 -7z m-398
-402 c-2 -18 -4 -6 -4 27 0 33 2 48 4 33 2 -15 2 -42 0 -60z"/>
<path d="M1050 2680 c-13 -8 -12 -10 3 -10 9 0 17 5 17 10 0 12 -1 12 -20 0z"/>
<path d="M981 2474 c0 -11 3 -14 6 -6 3 7 2 16 -1 19 -3 4 -6 -2 -5 -13z"/>
<path d="M4316 2729 c-32 -25 -36 -77 -8 -102 46 -41 132 -1 132 61 0 58 -71
82 -124 41z m90 -18 c-4 -5 -2 -11 4 -13 12 -4 -9 -48 -30 -60 -23 -15 -70 7
-70 32 0 12 6 27 13 35 13 15 92 21 83 6z"/>
<path d="M4058 2662 c-53 -15 -57 -18 -63 -51 -11 -65 -13 -68 -44 -63 -33 5
-36 1 -46 -55 l-7 -43 35 0 c19 0 40 7 47 15 11 13 10 14 -5 9 -13 -5 -16 -4
-11 4 4 8 2 10 -7 6 -9 -3 -16 3 -20 15 -4 16 0 21 13 21 10 0 20 -5 22 -10 2
-6 17 19 33 55 26 56 33 66 52 62 13 -2 24 2 27 10 11 28 24 2 19 -38 -8 -59
9 -86 54 -81 30 4 34 2 31 -14 -2 -11 -10 -19 -18 -19 -8 0 -21 -4 -27 -8 -7
-5 -13 -4 -13 1 0 5 -10 8 -22 7 -19 -1 -26 -12 -40 -66 -10 -35 -17 -77 -18
-92 0 -16 -4 -26 -10 -22 -6 4 -10 -15 -10 -49 0 -30 4 -57 10 -61 5 -3 7 -12
3 -20 -3 -8 0 -15 7 -15 6 0 8 5 4 12 -4 6 3 4 15 -4 12 -9 31 -14 42 -11 24
7 25 -15 2 -33 -25 -18 -108 -17 -144 2 -30 15 -30 17 -27 83 1 43 6 67 13 65
6 -3 10 13 10 40 -1 30 3 42 11 39 8 -3 11 7 9 29 -1 18 1 43 6 56 8 20 7 21
-10 12 -13 -6 -24 -33 -35 -82 -29 -132 -37 -188 -30 -211 18 -59 85 -88 161
-68 53 15 70 30 76 72 l5 37 -51 -2 -52 -1 3 45 c2 25 9 70 16 100 8 30 17 67
20 83 6 25 10 27 60 27 l53 0 10 45 c12 54 7 59 -53 50 -24 -3 -44 -3 -44 2 1
10 19 91 26 116 7 21 -10 21 -88 -1z"/>
<path d="M1555 2551 c-84 -22 -165 -101 -190 -184 -19 -63 -19 -147 -1 -191
33 -78 132 -113 237 -83 74 22 122 65 161 144 28 57 32 77 33 144 0 86 -15
118 -73 152 -35 21 -122 30 -167 18z m151 -38 c9 -10 20 -18 23 -17 12 1 38
-42 33 -55 -2 -8 0 -11 5 -8 6 4 9 -13 8 -41 -3 -69 -16 -126 -32 -135 -7 -5
-11 -12 -8 -17 3 -5 -9 -18 -25 -30 -17 -12 -28 -25 -25 -28 3 -4 10 0 15 8 6
9 10 10 10 3 0 -15 -40 -44 -52 -37 -4 3 -5 10 -2 16 4 7 2 8 -4 4 -6 -4 -9
-13 -5 -21 6 -17 -1 -19 -27 -5 -15 8 -16 14 -7 34 8 17 15 21 23 15 8 -7 10
-1 8 21 -2 19 0 29 6 25 6 -4 7 1 3 11 -5 12 -3 15 6 9 10 -5 11 -2 7 13 -4
13 -1 22 9 26 18 7 21 96 3 129 -12 24 -48 53 -60 50 -4 -2 -18 1 -31 6 -20 8
-24 6 -23 -6 0 -9 -5 -17 -12 -19 -7 -1 -8 0 -2 3 11 5 4 23 -10 23 -4 0 -7
-8 -5 -17 1 -10 -6 -27 -16 -38 -17 -19 -52 -89 -54 -110 0 -5 -4 -23 -8 -40
-16 -63 -16 -93 -1 -99 9 -3 12 -11 8 -17 -4 -8 -3 -9 5 -5 6 4 9 12 6 17 -10
15 12 10 25 -6 7 -9 30 -15 54 -15 22 0 49 -7 59 -15 18 -13 18 -14 -2 -24
-26 -14 -136 -14 -164 0 -29 15 -67 50 -67 61 0 5 5 6 11 2 8 -4 8 -1 1 13
-13 23 -19 140 -8 150 4 4 11 1 16 -7 13 -21 12 -3 -1 22 -8 16 -8 19 1 13 9
-5 10 -2 6 13 -9 27 64 109 85 97 8 -5 11 -4 6 0 -17 19 45 42 117 44 59 2 77
-2 92 -16z m-65 -70 c20 -23 15 -122 -9 -176 -35 -78 -84 -107 -124 -70 -37
33 -17 165 34 227 33 40 75 48 99 19z m-168 -247 c-3 -4 -9 -2 -14 5 -13 22
-11 31 5 17 8 -7 12 -17 9 -22z"/>
<path d="M1679 2512 c11 -8 11 -10 0 -14 -10 -3 -9 -6 3 -10 11 -5 15 -2 14
10 -2 9 -9 18 -17 20 -12 3 -12 2 0 -6z"/>
<path d="M1461 2384 c0 -11 3 -14 6 -6 3 7 2 16 -1 19 -3 4 -6 -2 -5 -13z"/>
<path d="M1696 2228 c3 -5 10 -6 15 -3 13 9 11 12 -6 12 -8 0 -12 -4 -9 -9z"/>
<path d="M2015 2549 c-114 -27 -197 -146 -199 -284 -1 -125 53 -179 179 -179
144 0 236 85 266 245 30 166 -73 258 -246 218z m152 -31 c18 -7 33 -16 33 -21
0 -4 -6 -5 -12 -1 -8 4 -10 3 -5 -2 5 -5 14 -9 20 -9 17 0 39 -51 39 -93 1
-56 -13 -112 -28 -112 -7 0 -16 -4 -19 -10 -3 -6 1 -7 9 -4 9 3 16 1 16 -5 0
-6 -4 -11 -10 -11 -5 0 -10 -7 -10 -15 0 -8 -5 -15 -11 -15 -5 0 -8 -4 -5 -9
7 -10 -42 -57 -51 -48 -3 4 -11 -3 -17 -16 -7 -12 -17 -22 -23 -22 -6 0 -15
-3 -19 -7 -13 -14 -138 -8 -158 7 -10 8 -23 12 -27 9 -5 -2 -17 13 -29 35 -21
43 -28 135 -10 146 6 4 7 11 4 17 -4 6 0 14 7 19 10 6 10 9 2 9 -10 0 -10 6
-1 25 6 14 18 24 26 23 8 -2 17 4 19 12 4 13 3 13 -6 0 -9 -13 -11 -13 -11 1
0 9 8 23 17 30 14 12 16 12 8 0 -5 -10 -4 -12 4 -7 6 4 9 11 7 15 -11 17 13
33 40 27 22 -6 25 -9 13 -17 -7 -5 -9 -9 -3 -9 5 0 15 5 22 12 6 6 14 9 18 6
3 -4 -3 -15 -14 -26 -11 -11 -23 -17 -27 -14 -3 4 -3 -2 1 -12 5 -14 4 -17 -5
-12 -6 4 -10 4 -9 -1 1 -4 -4 -18 -11 -31 -7 -13 -10 -30 -7 -39 5 -11 2 -13
-10 -9 -14 5 -15 4 -4 -9 8 -10 9 -15 1 -15 -15 0 -14 -73 2 -89 6 -8 7 -11 1
-8 -6 3 -11 0 -11 -7 0 -8 6 -12 14 -9 7 3 13 -2 13 -12 0 -10 -5 -14 -12 -9
-7 4 -10 3 -5 -1 7 -8 34 -15 67 -16 26 -2 69 5 65 10 -3 2 8 12 25 22 21 13
28 23 23 35 -5 13 -3 15 7 9 8 -5 11 -4 6 3 -11 18 5 62 23 62 9 0 12 3 6 8
-13 9 -18 35 -5 27 6 -4 10 9 10 34 0 24 -5 41 -11 41 -8 0 -7 6 2 17 8 9 9
14 3 10 -14 -8 -37 16 -26 29 4 5 3 6 -2 2 -4 -4 -15 0 -24 8 -10 10 -25 14
-44 10 -31 -6 -61 2 -53 14 3 5 1 12 -5 15 -6 4 -9 1 -8 -6 2 -6 -3 -14 -10
-16 -11 -4 -12 -1 -4 14 9 16 23 19 83 21 40 1 87 -3 106 -10z m-63 -74 c21
-20 21 -106 0 -167 -16 -49 -63 -97 -93 -97 -71 0 -71 164 0 245 34 38 68 45
93 19z"/>
<path d="M2100 2180 c-8 -5 -10 -10 -5 -10 6 0 17 5 25 10 8 5 11 10 5 10 -5
0 -17 -5 -25 -10z"/>
<path d="M2524 2541 c-23 -10 -44 -25 -48 -32 -3 -8 -4 -4 -3 9 2 22 -2 23
-60 27 -35 2 -63 3 -63 2 0 -1 -32 -148 -70 -327 -38 -179 -70 -327 -70 -330
0 -3 33 -3 72 0 l73 5 20 107 c17 91 22 106 35 98 8 -5 37 -10 64 -10 135 0
245 132 249 300 3 109 -30 155 -115 166 -30 3 -55 -1 -84 -15z m-77 -47 c-2
-13 1 -22 7 -21 6 1 10 -4 8 -11 -1 -8 2 -11 8 -7 8 5 7 11 -1 21 -9 11 -8 14
6 14 10 0 23 7 29 15 8 10 15 12 26 5 11 -7 11 -10 2 -10 -7 0 -11 -4 -7 -9 3
-5 1 -12 -5 -16 -5 -3 -10 -1 -10 5 0 16 -57 -46 -75 -80 -8 -15 -11 -30 -8
-33 3 -4 2 -12 -4 -19 -5 -7 -10 -24 -11 -38 -1 -14 -6 -26 -12 -28 -13 -5
-13 -89 0 -97 6 -4 7 -11 4 -17 -5 -7 -1 -9 9 -5 10 3 17 3 17 -1 0 -5 16 -9
37 -9 24 -1 32 2 22 8 -11 7 -9 9 9 10 12 1 27 3 32 4 6 1 13 3 16 4 4 0 0 9
-7 18 -10 11 -10 14 -1 9 7 -4 12 -2 12 4 0 6 5 8 11 4 8 -4 9 1 4 17 -7 21
-6 22 8 11 12 -10 17 -10 23 -1 4 8 3 9 -4 5 -13 -8 -17 35 -5 48 19 18 23
108 6 135 -9 14 -10 20 -3 16 9 -6 9 -3 1 14 -11 20 -23 26 -45 22 -5 -1 -6 5
-3 12 3 8 1 19 -4 24 -7 7 11 11 48 11 58 2 95 -9 75 -22 -6 -4 -8 -14 -5 -22
5 -12 7 -13 14 -3 4 8 11 10 16 6 12 -13 12 -129 0 -167 -6 -19 -11 -39 -12
-45 -3 -24 -21 -53 -63 -99 -25 -27 -42 -40 -38 -31 5 15 4 16 -9 5 -8 -7 -13
-15 -11 -19 3 -4 -3 -8 -12 -9 -79 -9 -118 -9 -132 -2 -13 7 -24 1 -46 -23
-16 -17 -20 -25 -10 -17 18 14 19 13 13 -3 -4 -10 -7 -25 -7 -33 0 -9 -5 -12
-11 -8 -7 4 -10 -8 -9 -37 3 -81 4 -79 -46 -79 l-46 0 5 43 c2 23 12 69 22
102 17 57 22 85 24 130 1 17 3 17 11 5 7 -10 8 -4 4 20 -4 22 0 50 10 74 9 21
16 54 16 72 0 45 31 155 42 148 4 -3 8 -1 8 4 0 5 14 6 31 4 26 -4 30 -8 26
-28z m117 -56 c31 -44 11 -165 -36 -215 -23 -25 -82 -48 -102 -40 -11 4 -9 27
11 114 20 91 28 112 53 136 37 33 54 34 74 5z"/>
<path d="M2370 2471 c0 -6 4 -13 10 -16 6 -3 7 1 4 9 -7 18 -14 21 -14 7z"/>
<path d="M2620 2451 c0 -6 4 -13 10 -16 6 -3 7 1 4 9 -7 18 -14 21 -14 7z"/>
<path d="M2920 2545 c-55 -17 -121 -80 -152 -144 -32 -64 -33 -206 -2 -247 53
-72 179 -91 284 -43 l55 26 -3 46 c-2 26 -6 47 -7 47 -2 0 -20 -10 -41 -22
-24 -14 -54 -22 -86 -22 -42 -1 -53 3 -74 27 -37 43 -31 53 35 60 78 8 166 42
190 73 52 67 45 151 -16 187 -43 25 -127 30 -183 12z m150 -24 c14 -4 24 -13
23 -19 -2 -7 3 -12 11 -12 23 0 35 -56 20 -95 -5 -13 -8 -14 -15 -3 -7 10 -9
9 -10 -4 -1 -10 -2 -24 -3 -30 0 -7 -10 -13 -21 -13 -11 0 -28 -8 -37 -17 -9
-9 -38 -19 -65 -23 -90 -11 -113 -16 -114 -23 -11 -57 -1 -87 31 -97 11 -3 20
-13 20 -21 0 -8 5 -14 11 -14 5 0 8 4 5 9 -3 4 6 6 19 3 14 -2 22 -9 19 -14
-4 -6 4 -5 16 2 12 6 24 9 27 7 2 -3 14 4 24 14 23 23 41 21 45 -3 2 -18 -22
-32 -37 -22 -5 3 -8 0 -7 -8 2 -8 -4 -12 -16 -10 -10 2 -15 -1 -12 -6 4 -7
-26 -10 -80 -9 l-86 2 -35 38 c-19 21 -32 45 -29 52 3 8 2 17 -3 19 -10 7 -3
94 10 119 8 14 8 18 0 13 -8 -5 -8 0 0 18 7 14 16 23 20 20 8 -4 14 24 11 48
-1 3 6 12 16 20 16 12 16 11 3 -7 -8 -11 3 -2 24 20 20 22 31 31 24 21 -13
-18 -13 -18 9 -7 13 7 20 17 16 23 -5 7 -2 9 7 6 8 -3 23 -2 34 3 25 10 92 9
125 0z"/>
<path d="M2953 2505 c7 -9 -40 -65 -55 -65 -5 0 -7 4 -3 9 3 5 1 12 -4 15 -10
7 -9 -13 2 -31 4 -6 3 -14 -2 -17 -5 -4 -12 0 -15 6 -3 7 -3 3 0 -9 3 -13 1
-23 -5 -23 -6 0 -11 -10 -11 -23 0 -28 38 -52 68 -43 11 4 30 9 41 11 11 2 30
13 42 24 12 11 26 18 30 15 4 -2 11 1 15 7 5 8 3 9 -6 4 -9 -5 -10 -2 -5 14 3
12 4 35 0 51 -5 22 -14 30 -38 36 -18 3 -39 11 -47 17 -8 6 -12 7 -7 2z m58
-45 c48 -26 0 -92 -79 -109 -26 -5 -48 -8 -50 -6 -8 8 40 85 64 104 30 24 38
25 65 11z"/>
<path d="M3045 2501 c-3 -5 -2 -12 3 -15 5 -3 9 1 9 9 0 17 -3 19 -12 6z"/>
<path d="M2825 2421 c-3 -5 -2 -12 3 -15 5 -3 9 1 9 9 0 17 -3 19 -12 6z"/>
<path d="M3069 2373 c-13 -16 -12 -17 4 -4 16 13 21 21 13 21 -2 0 -10 -8 -17
-17z"/>
<path d="M3020 2350 c-9 -6 -10 -10 -3 -10 6 0 15 5 18 10 8 12 4 12 -15 0z"/>
<path d="M2835 2310 c-3 -6 1 -7 9 -4 18 7 21 14 7 14 -6 0 -13 -4 -16 -10z"/>
<path d="M2831 2254 c0 -11 3 -14 6 -6 3 7 2 16 -1 19 -3 4 -6 -2 -5 -13z"/>
<path d="M3030 2166 c0 -2 7 -7 16 -10 8 -3 12 -2 9 4 -6 10 -25 14 -25 6z"/>
<path d="M2835 2151 c-3 -5 -2 -12 3 -15 5 -3 9 1 9 9 0 17 -3 19 -12 6z"/>
<path d="M2866 2138 c3 -4 11 -5 19 -1 21 7 19 12 -4 10 -11 0 -18 -5 -15 -9z"/>
<path d="M3425 2545 c-16 -9 -40 -28 -52 -43 -22 -26 -31 -48 -15 -38 4 2 8
-5 8 -17 0 -25 -30 -62 -44 -53 -5 3 -7 -5 -4 -19 4 -23 -4 -30 -31 -26 -4 1
-2 -9 5 -20 10 -17 10 -23 1 -26 -7 -3 -13 -21 -13 -41 0 -19 -7 -61 -16 -91
-15 -55 -16 -56 -52 -56 l-37 0 12 80 c6 44 19 107 27 140 9 33 19 84 23 113
3 28 10 52 15 52 5 0 7 3 4 8 -2 4 13 8 35 9 39 2 40 1 35 -28 -2 -16 0 -29 4
-29 5 0 10 -8 13 -17 2 -10 4 -2 4 17 -1 19 3 47 7 61 l7 25 -64 0 -64 0 -47
-216 c-25 -119 -46 -221 -46 -228 0 -8 22 -12 68 -12 l68 0 17 90 c26 135 46
187 84 220 25 22 44 30 72 30 l39 0 14 59 c15 58 15 59 -6 65 -31 8 -38 7 -71
-9z m61 -28 c4 -4 2 -7 -4 -7 -7 0 -12 -7 -12 -15 0 -8 -4 -15 -9 -15 -5 0 -7
10 -4 23 4 13 2 19 -3 14 -5 -5 -9 -14 -9 -20 0 -7 -9 -11 -20 -10 -11 1 -14
0 -7 -3 6 -3 9 -11 5 -17 -5 -9 -3 -9 8 0 10 8 19 9 29 1 13 -8 12 -9 -2 -5
-9 3 -18 2 -20 -3 -4 -10 -68 -21 -68 -12 1 18 30 57 42 57 7 1 12 6 11 12 -2
12 52 12 63 0z"/>
<path d="M3627 2549 c-21 -5 -51 -16 -67 -24 -27 -14 -30 -20 -30 -65 l0 -50
50 25 c81 41 140 31 140 -25 0 -24 -5 -26 -67 -38 -142 -26 -223 -91 -223
-177 0 -105 125 -149 218 -78 18 14 34 23 35 22 20 -37 28 -44 57 -47 18 -2
43 -1 56 2 29 8 51 43 35 59 -16 16 -13 60 9 157 28 123 27 165 -8 200 -45 45
-120 59 -205 39z m136 -44 c-1 -18 0 -18 10 -4 7 9 18 14 25 11 9 -3 10 -7 2
-17 -9 -11 -7 -12 9 -8 16 4 21 -1 26 -29 4 -19 1 -55 -6 -79 -7 -24 -11 -55
-10 -68 1 -22 0 -23 -11 -8 -11 14 -13 3 -11 -67 1 -47 4 -89 7 -94 9 -15 -16
-30 -47 -30 -22 0 -25 3 -16 14 9 12 15 12 28 2 14 -12 14 -11 3 4 -13 16 -15
16 -40 0 -14 -9 -23 -12 -19 -5 4 6 3 14 -3 18 -6 4 -8 10 -5 15 9 14 -39 -2
-52 -17 -6 -8 -16 -12 -21 -9 -5 3 -15 -1 -22 -10 -16 -18 -99 -17 -125 2 -21
16 -31 89 -16 126 12 33 119 89 172 91 21 1 41 5 45 9 4 5 14 2 23 -4 9 -7 13
-8 8 -3 -4 4 2 18 12 29 20 21 33 88 19 94 -4 2 -24 10 -44 18 -20 8 -33 11
-31 7 3 -5 -11 -9 -32 -9 -29 0 -37 4 -38 19 -1 13 3 17 13 13 8 -3 13 -2 10
3 -4 5 26 8 67 8 65 -2 72 -4 70 -22z m-171 -21 c-5 -28 -15 -35 -32 -23 -13
9 -13 10 2 6 16 -6 19 8 5 30 -4 7 -1 10 10 8 12 -1 17 -9 15 -21z m155 -31
c0 -9 -4 -10 -14 -2 -7 6 -13 12 -13 14 0 1 6 2 13 2 8 0 14 -6 14 -14z"/>
<path d="M3690 2340 c0 -5 -8 -10 -17 -10 -10 0 -31 -7 -47 -15 -32 -17 -60
-20 -51 -5 10 16 -1 11 -16 -7 -8 -10 -9 -14 -2 -10 6 4 14 3 18 -3 3 -5 1
-10 -5 -10 -6 0 -8 -5 -4 -12 5 -7 2 -9 -7 -6 -18 7 -20 -52 -2 -74 7 -8 10
-18 6 -21 -3 -4 6 -7 21 -7 24 0 26 -2 16 -22 -10 -22 -10 -22 4 -4 8 10 19
15 25 12 5 -4 16 3 24 14 7 11 17 17 22 12 5 -4 4 -1 0 7 -6 11 -4 13 8 8 12
-4 14 -2 10 10 -4 11 -2 14 5 9 11 -6 17 12 13 37 0 4 4 7 10 7 5 0 7 5 4 10
-3 6 0 10 7 10 10 0 9 3 -1 9 -12 8 -13 12 -1 25 11 14 10 16 -5 10 -13 -5
-16 -4 -11 4 5 8 2 10 -9 6 -11 -5 -14 -2 -9 10 3 9 3 16 0 16 -3 0 -6 -4 -6
-10z m5 -77 c-17 -58 -47 -85 -89 -81 -33 3 -42 21 -32 63 4 17 21 29 59 44
77 29 78 29 62 -26z"/>
<path d="M3515 2260 c-3 -5 -1 -10 4 -10 6 0 11 5 11 10 0 6 -2 10 -4 10 -3 0
-8 -4 -11 -10z"/>
<path d="M3736 2243 c-6 -14 -5 -15 5 -6 7 7 10 15 7 18 -3 3 -9 -2 -12 -12z"/>
<path d="M3496 2137 c3 -10 9 -15 12 -12 3 3 0 11 -7 18 -10 9 -11 8 -5 -6z"/>
<path d="M4985 2551 c-119 -31 -198 -140 -199 -276 -1 -92 15 -129 73 -163 61
-36 161 -37 239 -3 l52 23 0 49 c0 27 -2 49 -5 49 -3 0 -23 -9 -43 -19 -84
-43 -164 -32 -178 24 -3 14 -14 29 -23 34 -13 7 -16 4 -16 -19 -1 -16 3 -27 7
-24 4 2 12 -5 18 -16 10 -19 7 -24 -13 -21 -5 1 -6 -3 -2 -8 3 -6 13 -7 22 -4
12 5 14 3 8 -7 -5 -9 -4 -11 4 -6 6 4 8 12 5 18 -4 6 2 6 15 -1 11 -7 21 -14
21 -17 0 -3 -4 -2 -10 1 -5 3 -10 2 -10 -3 0 -14 109 -5 135 12 15 10 25 12
25 6 0 -6 5 -8 12 -4 7 4 2 -7 -11 -24 -21 -31 -49 -45 -36 -19 4 6 0 4 -8 -5
-11 -15 -30 -18 -96 -18 -77 0 -83 2 -114 31 -17 17 -30 38 -29 47 2 9 -4 22
-14 29 -10 7 -14 13 -8 13 5 0 8 21 5 46 -2 25 2 51 8 57 6 6 11 25 11 43 0
33 20 59 36 46 4 -4 2 1 -6 11 -11 16 -11 18 1 15 8 -2 13 3 12 10 -2 6 4 12
12 12 8 0 15 -5 15 -12 0 -6 3 -8 6 -5 4 4 1 13 -6 22 -15 18 0 20 19 3 11
-11 12 -9 3 7 -9 17 -7 21 9 21 12 0 18 -5 15 -13 -3 -7 -3 -13 0 -13 2 0 9
11 14 24 10 28 57 37 125 23 40 -8 85 -41 85 -61 0 -6 -5 -4 -11 4 -9 12 -10
12 -5 -3 3 -10 6 -24 6 -30 0 -7 4 -6 10 3 9 13 10 13 10 0 -1 -8 -7 -24 -15
-34 -8 -11 -15 -29 -15 -40 0 -17 -2 -18 -10 -6 -8 12 -10 12 -10 1 0 -9 -7
-11 -22 -8 -12 4 -28 2 -34 -4 -10 -8 -12 -5 -11 10 0 11 5 17 9 15 4 -3 8 1
8 9 0 8 10 22 23 31 19 15 19 16 2 11 -11 -3 -16 -3 -12 1 3 4 -1 20 -10 35
-13 21 -22 27 -36 23 -13 -4 -17 -2 -13 5 5 7 -2 7 -24 0 -16 -6 -33 -15 -36
-20 -3 -5 -10 -6 -16 -3 -7 4 -8 2 -4 -4 4 -6 -2 -17 -14 -24 -11 -7 -20 -23
-20 -36 0 -18 -4 -23 -16 -18 -13 5 -14 4 -6 -7 9 -10 8 -17 -1 -27 -10 -10
-9 -12 5 -7 13 5 15 2 11 -11 -3 -9 -3 -14 2 -10 4 4 16 3 26 -3 13 -7 19 -6
19 1 0 6 5 8 10 5 6 -4 27 3 46 14 19 12 32 17 29 11 -3 -5 -1 -11 4 -11 6 -1
16 -3 21 -4 6 -1 13 -3 18 -4 10 -3 -39 -23 -68 -27 -14 -2 -41 -5 -61 -5 -47
-2 -71 -15 -46 -25 22 -8 101 1 158 18 57 16 115 73 124 119 9 49 -15 103 -55
124 -37 19 -113 27 -155 16z m66 -91 c24 -14 25 -52 0 -74 -19 -18 -111 -50
-119 -42 -2 3 1 20 7 39 14 42 50 76 89 86 2 1 12 -4 23 -9z m54 -120 c3 -6
-1 -7 -9 -4 -18 7 -21 14 -7 14 6 0 13 -4 16 -10z"/>
<path d="M4270 2548 c-1 -2 -22 -105 -48 -230 l-48 -228 68 0 c62 0 68 2 73
23 17 72 85 410 85 422 0 12 -14 15 -65 15 -36 0 -65 -1 -65 -2z m83 -26 c7
17 7 -66 0 -115 -2 -20 -8 -35 -12 -33 -4 3 -7 -12 -7 -31 0 -20 -5 -38 -12
-41 -16 -5 -15 -32 1 -32 8 0 9 -3 1 -8 -9 -6 -22 -69 -26 -129 -1 -7 -5 -10
-10 -7 -5 4 -7 13 -4 21 3 8 1 11 -5 8 -5 -4 -7 -16 -3 -27 5 -18 4 -19 -16
-8 -15 8 -20 8 -16 1 4 -6 0 -11 -9 -11 -13 0 -15 10 -12 63 2 34 9 73 14 87
6 14 14 50 17 80 11 88 29 164 40 172 6 4 17 1 25 -5 12 -10 14 -9 8 7 -6 15
-5 17 7 7 11 -9 15 -9 19 1z"/>
<path d="M4326 2403 c-6 -14 -5 -15 5 -6 7 7 10 15 7 18 -3 3 -9 -2 -12 -12z"/>
<path d="M4424 2516 c3 -17 17 -120 32 -228 l27 -198 71 1 71 0 109 217 c60
119 111 222 113 228 2 6 -21 11 -62 12 l-65 2 -31 -68 c-17 -37 -46 -102 -64
-146 -18 -43 -39 -83 -47 -87 -10 -7 -10 -9 0 -9 21 0 57 42 71 85 7 22 25 52
39 67 22 24 23 29 11 45 -8 9 -9 14 -3 10 11 -7 34 32 34 59 0 11 10 14 39 13
39 -3 46 -14 24 -40 -6 -8 -14 -25 -18 -38 -7 -24 -8 -24 -22 -5 -15 18 -15
18 -9 -3 4 -12 3 -24 -2 -27 -5 -3 -9 -17 -9 -30 0 -13 -10 -38 -22 -54 -11
-17 -21 -38 -21 -47 0 -15 -2 -16 -17 -4 -15 13 -15 12 -6 -6 6 -11 7 -29 2
-40 -5 -14 -8 -16 -9 -5 -2 8 -2 19 -1 23 1 5 -3 6 -8 2 -6 -3 -8 -11 -5 -19
3 -7 -1 -26 -7 -42 -7 -16 -12 -32 -11 -36 1 -5 -6 -8 -15 -8 -15 0 -16 -2 -3
-10 12 -8 10 -10 -10 -11 -29 -2 -81 -2 -92 0 -5 1 -9 43 -9 94 -1 59 -4 79
-8 57 -5 -27 -9 -11 -19 75 -7 61 -15 125 -19 143 l-5 33 41 -3 c23 -1 44 -5
46 -8 2 -4 7 -58 10 -121 7 -118 9 -129 27 -129 11 0 6 128 -8 242 l-6 47 -70
-1 -70 -1 6 -31z m267 -109 c-10 -9 -11 -8 -5 6 3 10 9 15 12 12 3 -3 0 -11
-7 -18z"/>
<path d="M3304 2495 c-3 -8 -4 -20 -2 -27 3 -7 7 -1 10 15 6 29 1 36 -8 12z"/>
<path d="M5109 2483 c-13 -16 -12 -17 4 -4 9 7 17 15 17 17 0 8 -8 3 -21 -13z"/>
<path d="M3296 2437 c3 -10 9 -15 12 -12 3 3 0 11 -7 18 -10 9 -11 8 -5 -6z"/>
<path d="M5026 2331 c-4 -5 -2 -12 3 -15 5 -4 12 -2 15 3 4 5 2 12 -3 15 -5 4
-12 2 -15 -3z"/>
<path d="M3366 2237 c3 -10 9 -15 12 -12 3 3 0 11 -7 18 -10 9 -11 8 -5 -6z"/>
<path d="M5090 2160 c-9 -6 -10 -10 -3 -10 6 0 15 5 18 10 8 12 4 12 -15 0z"/>
<path d="M3971 2151 c-10 -6 -9 -10 3 -14 8 -3 18 -2 21 3 8 13 -9 20 -24 11z"/>
<path d="M4874 2143 c11 -13 24 -23 30 -23 6 0 5 4 -3 9 -7 5 -9 11 -5 13 5 3
4 4 -2 2 -6 -1 -18 3 -25 9 -7 7 -5 2 5 -10z"/>
<path d="M4075 2141 c3 -5 -1 -11 -7 -14 -7 -3 -3 -4 10 -4 25 1 29 12 6 21
-8 3 -13 2 -9 -3z"/>
<path d="M2673 2006 c-146 -28 -283 -101 -326 -173 -16 -29 -17 -35 -3 -60 8
-16 26 -35 40 -43 26 -13 29 -12 84 41 31 31 74 66 94 80 38 24 44 40 17 47
-12 3 -12 2 0 -7 12 -8 10 -11 -11 -16 -15 -4 -34 -15 -44 -26 -9 -10 -23 -19
-29 -19 -7 0 -15 -7 -19 -15 -3 -8 -11 -13 -18 -11 -7 1 -10 1 -5 -1 11 -7 -2
-23 -16 -19 -7 1 -9 1 -5 -1 12 -7 -11 -43 -27 -43 -8 0 -15 5 -15 11 0 6 -7
17 -15 25 -19 20 -19 43 0 50 8 4 12 11 8 17 -4 6 0 8 10 4 9 -3 16 -2 14 2
-4 15 51 59 90 72 21 6 47 18 58 25 12 8 32 16 45 18 14 2 27 5 30 6 3 2 9 2
13 1 4 -1 16 3 27 9 25 13 209 15 223 1 5 -5 15 -7 22 -4 31 11 140 -73 129
-101 -3 -8 -2 -20 2 -27 11 -19 13 -70 2 -63 -5 3 -8 0 -7 -7 4 -27 -23 -80
-38 -75 -11 4 -13 1 -8 -14 7 -21 -10 -28 -18 -7 -4 9 -6 8 -6 -2 -1 -11 -4
-11 -18 0 -16 13 -17 12 -4 -3 7 -10 18 -15 23 -11 6 3 9 0 7 -6 -3 -7 -8 -11
-12 -9 -3 2 -14 -7 -22 -19 -10 -14 -22 -20 -33 -16 -9 3 -14 2 -9 -2 17 -19
-129 -72 -203 -74 -51 -1 -68 -10 -75 -41 -4 -16 -11 -30 -16 -30 -5 0 -9 -8
-9 -18 0 -10 -5 -23 -10 -28 -10 -10 -22 -62 -21 -96 0 -25 -19 -35 -72 -40
-34 -2 -46 0 -43 9 3 6 0 13 -6 15 -7 3 -6 12 5 29 9 13 21 49 28 79 6 30 19
72 29 92 10 21 21 60 25 88 4 31 11 48 18 43 6 -4 8 2 5 15 -4 12 -3 22 2 22
8 0 24 76 21 98 -1 6 2 12 7 12 6 0 10 6 9 13 -1 35 4 46 18 41 11 -5 13 -2 9
9 -14 37 -37 -5 -83 -152 -28 -86 -61 -194 -75 -241 -13 -47 -32 -107 -40
-134 -8 -27 -13 -53 -10 -58 7 -10 135 -10 152 0 6 5 27 62 46 127 l33 119 49
3 c201 14 353 126 378 279 15 87 -32 163 -122 197 -59 24 -192 29 -279 13z"/>
<path d="M3183 1992 c-6 -4 -32 -72 -56 -152 -25 -80 -63 -203 -86 -275 -46
-146 -51 -200 -21 -238 29 -37 94 -45 151 -20 24 11 50 27 58 36 12 15 16 14
40 -12 52 -55 152 -48 215 16 24 24 26 24 26 6 0 -64 116 -81 180 -27 l28 24
37 -24 c46 -32 115 -42 184 -28 69 15 115 50 136 107 27 68 8 108 -75 162 -95
62 -98 65 -82 90 17 27 65 26 106 -2 42 -28 42 -28 75 27 l21 36 -25 20 c-35
28 -115 45 -167 37 -91 -15 -146 -63 -155 -136 -9 -61 11 -93 88 -144 73 -48
87 -75 48 -95 -28 -16 -66 -5 -111 31 -20 16 -39 29 -41 29 -2 0 -21 -13 -42
-30 -21 -16 -41 -30 -45 -30 -22 0 -15 46 30 192 26 89 46 166 44 170 -3 4
-36 8 -74 8 l-68 0 -36 -117 c-43 -141 -79 -216 -111 -233 -26 -14 -53 -8 -61
14 -3 8 15 83 40 166 26 83 44 155 41 161 -9 14 -131 11 -143 -3 -5 -7 -22
-56 -36 -108 -49 -175 -66 -218 -91 -234 -68 -44 -64 -9 30 283 47 145 85 272
85 282 0 17 -8 19 -62 19 -35 0 -68 -4 -75 -8z m106 -33 c1 8 3 12 5 10 6 -6
-41 -141 -52 -148 -4 -3 -8 -15 -8 -26 -1 -16 -21 -92 -61 -225 -4 -13 -5 -13
-14 0 -7 11 -8 7 -3 -13 4 -17 1 -36 -9 -51 -22 -32 -16 -86 11 -121 13 -17
21 -24 17 -17 -3 6 -2 12 4 12 5 0 28 17 51 39 34 31 44 49 56 102 8 35 21 78
28 94 8 17 17 51 20 76 l7 46 52 -1 c46 -1 52 -3 49 -21 -2 -11 -4 -25 -4 -32
-1 -7 -5 -10 -10 -7 -4 3 -8 -4 -8 -16 0 -30 -32 -140 -39 -135 -4 2 -7 -21
-6 -52 0 -61 21 -88 63 -80 16 3 20 1 12 -8 -7 -8 -5 -12 5 -12 8 0 19 13 26
29 6 16 16 31 22 35 6 4 7 1 2 -7 -5 -9 -4 -11 3 -6 7 4 12 14 12 22 0 8 11
35 25 59 13 25 22 51 19 59 -3 8 -1 17 5 20 5 4 13 27 17 51 3 25 11 45 16 45
5 0 6 5 3 11 -20 31 65 65 93 37 9 -9 12 -9 12 2 0 7 2 11 5 8 3 -3 0 -18 -6
-34 -7 -16 -14 -38 -16 -48 -5 -26 -31 -105 -43 -125 -5 -10 -10 -36 -13 -60
-2 -23 -10 -47 -18 -53 -11 -8 -11 -9 3 -5 14 5 23 -4 29 -31 1 -4 10 -13 21
-21 19 -13 18 -14 -7 -27 -15 -8 -47 -13 -71 -12 -35 1 -47 6 -61 27 -10 14
-17 28 -16 31 1 3 -7 6 -17 6 -10 0 -16 -4 -14 -8 3 -5 -8 -13 -25 -19 -17 -6
-29 -14 -27 -18 2 -3 -7 -11 -20 -18 -13 -6 -24 -7 -24 -3 0 5 -13 4 -29 -1
-25 -9 -33 -6 -62 20 -40 37 -58 38 -107 8 -40 -26 -86 -41 -76 -26 7 12 -3
11 -25 -1 -15 -7 -24 -3 -44 20 -28 31 -31 75 -9 117 7 12 12 36 12 52 0 17 9
50 19 74 22 47 46 125 44 145 0 6 4 12 9 12 6 0 7 7 4 16 -3 8 -2 12 4 9 6 -4
10 6 10 22 0 24 17 85 37 133 3 8 5 18 5 23 -1 4 3 7 9 7 5 0 7 5 3 11 -4 8 3
9 22 5 16 -3 36 -2 44 4 11 7 17 5 22 -8 4 -12 7 -13 7 -3z m731 -222 c0 -4 5
-5 10 -2 12 7 54 -4 46 -12 -3 -4 -1 -12 5 -19 7 -9 4 -16 -10 -26 -12 -8 -20
-17 -18 -19 1 -2 -2 1 -8 7 -31 34 -103 45 -125 19 -7 -8 -17 -12 -23 -8 -6 4
-8 0 -4 -10 4 -10 1 -17 -5 -17 -9 0 -9 -3 -1 -11 6 -6 9 -19 6 -28 -4 -9 -2
-13 2 -9 5 5 15 -1 23 -13 7 -11 19 -18 25 -16 6 2 18 -4 27 -12 16 -15 38
-31 68 -50 17 -10 34 -81 20 -81 -6 0 -8 -6 -5 -13 5 -14 -38 -73 -51 -71 -4
1 -6 -2 -5 -6 1 -4 -7 -5 -19 -2 -13 3 -19 1 -15 -5 4 -6 -3 -11 -16 -12 -94
-6 -125 -6 -121 1 2 3 0 9 -6 13 -5 3 -10 1 -10 -4 0 -14 -38 6 -62 33 -10 11
-18 14 -18 7 0 -7 -4 -9 -10 -6 -5 3 -10 1 -10 -5 0 -8 -6 -8 -20 0 -12 6 -18
16 -13 23 5 8 8 8 11 -1 2 -7 14 1 29 18 24 30 53 40 53 19 0 -5 -4 -8 -9 -5
-5 3 -15 -2 -22 -12 -11 -14 -11 -15 1 -5 11 10 17 10 29 0 12 -10 13 -9 7 2
-5 8 -5 12 0 9 43 -20 64 -33 64 -40 0 -4 16 -8 37 -8 20 0 34 3 30 6 -3 3 7
17 23 31 19 16 27 30 23 41 -10 28 -35 52 -47 45 -6 -4 -4 2 4 12 9 11 10 16
2 11 -15 -9 -85 32 -77 45 4 5 -2 6 -11 2 -14 -5 -16 -3 -11 11 4 10 3 15 -3
11 -20 -12 -14 89 7 121 15 23 69 48 83 39 5 -3 11 -1 15 5 7 12 105 9 105 -3z"/>
<path d="M3061 1534 c0 -11 3 -14 6 -6 3 7 2 16 -1 19 -3 4 -6 -2 -5 -13z"/>
<path d="M4336 1983 c-8 -30 -20 -98 -18 -105 1 -5 -29 -8 -67 -8 -39 0 -72
-3 -74 -7 -3 -5 -8 -29 -12 -54 l-7 -45 66 2 c36 1 66 -1 66 -4 0 -4 -4 -23
-9 -42 -25 -97 -28 -90 33 -90 l55 0 11 58 c6 31 13 62 15 69 3 8 25 11 69 8
l65 -3 10 49 c6 28 11 52 11 55 0 3 -30 4 -66 2 l-66 -3 6 33 c3 17 9 48 12
67 l7 35 -51 0 c-40 0 -52 -4 -56 -17z m69 -32 c3 -10 1 -29 -4 -43 -5 -14 -5
-31 -1 -38 5 -8 7 -17 5 -21 -3 -3 7 -4 22 -1 19 4 24 2 18 -8 -6 -9 -3 -10
14 -1 13 7 21 8 21 2 0 -5 9 -8 20 -6 21 4 20 -4 -9 -36 -10 -12 -23 -16 -42
-12 -62 12 -104 -25 -97 -87 2 -15 -2 -24 -9 -23 -7 2 -10 -4 -6 -13 6 -16
-17 -16 -29 1 -10 13 -10 27 0 22 4 -3 5 17 4 44 -4 47 -5 49 -40 54 -21 3
-45 8 -54 9 -9 2 -19 -1 -22 -8 -2 -6 -5 -2 -5 9 -1 26 9 39 33 43 12 2 16 -1
10 -10 -4 -7 3 -4 16 7 13 11 20 14 16 8 -4 -8 -1 -13 9 -13 28 0 52 18 59 45
4 14 11 25 16 25 6 0 10 15 10 33 0 25 4 33 20 34 10 1 22 -6 25 -16z"/>
<path d="M2710 1921 c-24 -4 -54 -6 -65 -4 -20 3 -20 3 0 -6 15 -7 16 -10 5
-11 -8 -2 -19 -2 -23 -1 -5 1 -6 -3 -2 -9 4 -6 13 -7 23 -1 31 16 148 23 191
11 65 -17 86 -74 56 -148 -20 -47 -50 -79 -97 -103 -42 -21 -118 -40 -118 -29
0 4 16 59 35 121 19 63 35 120 35 127 0 8 -17 12 -52 12 -38 0 -49 -3 -38 -10
8 -5 27 -10 42 -10 l27 0 -14 -41 c-8 -23 -15 -50 -15 -61 0 -11 -4 -16 -11
-12 -8 4 -9 0 -4 -15 4 -13 2 -21 -5 -21 -6 0 -10 -6 -9 -12 3 -26 -1 -49 -8
-45 -5 3 -8 -8 -8 -23 0 -15 3 -26 8 -23 4 2 7 -1 7 -8 0 -16 82 -5 113 16 13
8 27 12 32 8 4 -5 4 -2 0 6 -6 11 -4 13 9 8 11 -5 15 -3 10 5 -5 8 -2 9 10 5
14 -6 17 -3 12 9 -5 14 -4 15 9 4 13 -11 14 -10 9 4 -3 9 -1 16 5 16 6 0 11 7
11 15 0 9 6 18 14 21 9 3 12 12 8 22 -5 15 -4 16 13 2 15 -12 17 -12 10 -1
-11 20 -12 121 -1 114 5 -4 6 -1 2 5 -4 7 -4 17 0 23 4 8 9 7 15 -2 6 -10 9
-10 9 -2 0 17 -17 25 -25 13 -5 -8 -11 -7 -21 1 -7 6 -12 15 -9 18 2 4 -1 8
-8 8 -7 1 -41 3 -77 6 -36 3 -85 2 -110 -2z m196 -33 l19 -23 -25 20 c-14 11
-27 21 -29 22 -2 2 0 3 6 3 5 0 18 -10 29 -22z"/>
<path d="M2405 1760 c-3 -5 -1 -10 4 -10 6 0 11 5 11 10 0 6 -2 10 -4 10 -3 0
-8 -4 -11 -10z"/>
<path d="M3045 1190 c-290 -20 -566 -57 -755 -101 -136 -31 -274 -71 -285 -82
-7 -6 -2 -8 15 -4 48 11 835 97 1050 114 385 31 1191 23 1370 -13 21 -4 22 -3
8 6 -20 12 -302 54 -478 70 -162 15 -757 21 -925 10z m240 -19 c-3 -5 5 -11
17 -13 13 -2 -10 -4 -50 -3 -40 1 -75 -2 -77 -5 -4 -6 -127 -14 -237 -15 -31
0 -55 -2 -53 -5 3 -5 -48 -5 -115 0 l-35 2 36 7 c20 4 65 7 101 7 37 -1 64 2
62 6 -6 9 100 16 111 6 5 -4 18 -8 30 -8 15 0 17 2 6 9 -9 6 26 9 89 10 57 1
106 4 109 6 8 8 12 5 6 -4z m75 -1 c0 -5 -8 -10 -17 -10 -15 0 -16 2 -3 10 19
12 20 12 20 0z m98 3 c-10 -2 -28 -2 -40 0 -13 2 -5 4 17 4 22 1 32 -1 23 -4z
m-816 -55 c2 5 28 6 58 2 55 -6 55 -6 -40 -15 -52 -6 -105 -10 -117 -10 -12 1
-20 -2 -17 -6 5 -9 -86 -2 -94 7 -4 4 6 4 21 0 16 -4 26 -3 24 1 -3 4 11 9 31
11 71 7 82 8 88 15 4 3 15 2 25 -3 9 -6 19 -6 21 -2z"/>
<path d="M459 783 c-13 -16 -12 -17 4 -4 9 7 17 15 17 17 0 8 -8 3 -21 -13z"/>
    </g>
  </mask>
  <g mask="url(#ink)">
    <rect width="600" height="600" fill="#1b2b66"/>
    <rect x="150" y="55" width="420" height="165" fill="#6cb33f"/>
    <rect x="172" y="400" width="192" height="80" fill="#f47b20"/>
    <rect x="360" y="395" width="115" height="90" fill="#6cb33f"/>
  </g>
</svg>
